<?xml version="1.0" encoding="UTF-8"?>
<svg version="1.1" xmlns="http://www.w3.org/2000/svg" width="1080" height="1080">
<path d="M0 0 C7.02507448 -0.07671308 14.05003904 -0.12887529 21.07543945 -0.16479492 C23.46024614 -0.1797856 25.84502572 -0.20018499 28.22973633 -0.22631836 C60.76444972 -0.57366405 60.76444972 -0.57366405 71.48828125 8.37890625 C73 10 73 10 73 12 C73.66 12 74.32 12 75 12 C87.97367179 29.15782136 90.91379518 50.61005838 88.3828125 71.5390625 C86.40268568 85.61957281 82.79771682 103.5931936 70.7109375 112.73046875 C69.94007813 113.21128906 69.16921875 113.69210937 68.375 114.1875 C65.96869165 115.70243499 64.01576999 116.98423001 62 119 C62.87011719 119.52787109 62.87011719 119.52787109 63.7578125 120.06640625 C72.82489839 125.79692423 77.91684711 131.63550504 81 142 C83.5432313 154.32472286 83.61424566 166.97036332 84.0625 179.5 C84.32414895 186.4791186 84.59383824 193.45783841 84.89093018 200.43554688 C84.95970688 202.05262696 85.0262224 203.66980629 85.08953857 205.28710938 C85.16906222 207.22329786 85.26920414 209.1586096 85.37109375 211.09375 C85.44541626 212.62032227 85.44541626 212.62032227 85.52124023 214.17773438 C86.08901916 217.52476364 87.35982857 220.04588212 89 223 C91.37305578 223.41780879 91.37305578 223.41780879 94 223 C95.6446674 220.53673288 95.6446674 220.53673288 97 218 C97.99 218 98.98 218 100 218 C99.68575326 224.12781143 96.75707646 228.36098071 93 233 C88.459454 237.03604089 83.9814156 238.24787848 78 238 C71.68220362 236.01794623 67.9242664 231.48380257 64.8046875 225.8359375 C58.08709831 210.16156273 59.69104658 190.55157978 59.42895508 173.78710938 C59.24816349 147.44018599 59.24816349 147.44018599 49 124 C44.24350993 121.32509219 44.24350993 121.32509219 35 121 C35 157.3 35 193.6 35 231 C38.3 231 41.6 231 45 231 C45 232.32 45 233.64 45 235 C29.82 235 14.64 235 -1 235 C-1 233.68 -1 232.36 -1 231 C2.63 231 6.26 231 10 231 C10 156.42 10 81.84 10 5 C6.7 5 3.4 5 0 5 C0 3.35 0 1.7 0 0 Z M35 5 C35 41.63 35 78.26 35 116 C43.58440159 116 47.21208438 114.03682356 53.125 108.3125 C66.93476275 91.96024217 65.02448566 62.04476728 63.7578125 42.20703125 C62.33239194 30.4982195 57.88853315 16.9830155 50 8 C45.36666667 3.9 45.36666667 3.9 35 5 Z " fill="#000000" transform="translate(313,422)"/>
<path d="M0 0 C1.76414931 1.48838293 3.1076274 2.91632919 4.44921875 4.7890625 C6.47195701 7.7831107 6.47195701 7.7831107 9.38671875 9.6640625 C12.22945831 9.83634975 13.20320236 9.60036604 15.44921875 7.7890625 C16.69128656 5.19393358 17.60569819 2.53689463 18.44921875 -0.2109375 C19.43921875 -0.2109375 20.42921875 -0.2109375 21.44921875 -0.2109375 C21.84341705 8.83893442 22.23479014 17.88892302 22.62267303 26.93906784 C22.80291754 31.1425442 22.98409224 35.34597594 23.16748047 39.54931641 C23.34481197 43.61465335 23.51958551 47.68009331 23.69267273 51.7456131 C23.75875458 53.28757818 23.82571902 54.82950573 23.89363098 56.3713913 C24.28099546 65.18081805 24.54908106 73.96868442 24.44921875 82.7890625 C23.45921875 82.7890625 22.46921875 82.7890625 21.44921875 82.7890625 C20.25281763 77.83254356 19.32225501 72.97464273 18.69921875 67.9140625 C14.61510353 34.03437654 14.61510353 34.03437654 -2.55078125 5.7890625 C-6.53123648 3.50373217 -9.78482508 2.34757346 -14.30078125 3.4765625 C-23.77725961 13.21627637 -25.97995696 29.64110273 -28.17578125 42.4765625 C-28.37945312 43.60255859 -28.583125 44.72855469 -28.79296875 45.88867188 C-31.56683564 61.70504752 -32.89061992 77.57812598 -33.67578125 93.6015625 C-33.71747437 94.43510254 -33.75916748 95.26864258 -33.80212402 96.12744141 C-34.424391 108.69279386 -34.98979654 121.20853049 -34.55078125 133.7890625 C-34.52886719 134.44050232 -34.50695312 135.09194214 -34.484375 135.76312256 C-33.76794161 156.65340123 -32.5814349 177.23310174 -28.55078125 197.7890625 C-28.38819824 198.62711426 -28.22561523 199.46516602 -28.05810547 200.32861328 C-24.68427464 218.29575281 -24.68427464 218.29575281 -14.55078125 232.7890625 C-11.48650142 233.56126102 -9.80673602 233.30588072 -6.55078125 232.7890625 C-1.32944058 229.5982432 0.51887346 222.4325188 1.96295166 216.77716064 C3.99252441 207.2251479 3.80280287 197.61989971 3.86328125 187.90234375 C3.88202108 185.98991588 3.90159652 184.07749604 3.92196655 182.16508484 C3.97299666 177.16591146 4.01277707 172.16671136 4.05010986 167.16741943 C4.09033345 162.05230254 4.14134147 156.93729399 4.19140625 151.82226562 C4.28782011 141.81127436 4.37233394 131.80022149 4.44921875 121.7890625 C0.81921875 121.7890625 -2.81078125 121.7890625 -6.55078125 121.7890625 C-6.55078125 120.1390625 -6.55078125 118.4890625 -6.55078125 116.7890625 C9.28921875 116.7890625 25.12921875 116.7890625 41.44921875 116.7890625 C41.11921875 118.4390625 40.78921875 120.0890625 40.44921875 121.7890625 C36.81921875 121.7890625 33.18921875 121.7890625 29.44921875 121.7890625 C29.44921875 160.0690625 29.44921875 198.3490625 29.44921875 237.7890625 C28.45921875 237.7890625 27.46921875 237.7890625 26.44921875 237.7890625 C26.05089844 236.52449219 26.05089844 236.52449219 25.64453125 235.234375 C25.29132813 234.13867188 24.938125 233.04296875 24.57421875 231.9140625 C24.22617188 230.82351563 23.878125 229.73296875 23.51953125 228.609375 C22.63746644 225.70383527 22.63746644 225.70383527 20.44921875 223.7890625 C16.75927568 223.28890424 15.05524416 223.35549901 11.9921875 225.546875 C11.21488281 226.32804688 10.43757813 227.10921875 9.63671875 227.9140625 C8.33154297 229.13802734 8.33154297 229.13802734 7 230.38671875 C6.15824219 231.17949219 5.31648438 231.97226562 4.44921875 232.7890625 C-1.42339824 238.24299385 -6.75890197 239.61582881 -14.67285156 239.42553711 C-24.62253903 238.78932888 -30.45296323 233.73084462 -37.13671875 226.6953125 C-52.16850979 208.59878736 -56.65725017 184.3070639 -60.55078125 161.7890625 C-60.74800781 160.70109375 -60.94523438 159.613125 -61.1484375 158.4921875 C-62.97742328 146.99570543 -62.92298494 135.46550269 -62.92138672 123.84960938 C-62.92573848 120.32371912 -62.96210546 116.79910584 -63 113.2734375 C-63.07434995 98.36016867 -61.68671595 84.36301262 -58.55078125 69.7890625 C-58.14956055 67.85426025 -58.14956055 67.85426025 -57.74023438 65.88037109 C-57.07729815 62.81542001 -56.36579386 59.77061747 -55.61328125 56.7265625 C-55.35587158 55.68056885 -55.09846191 54.6345752 -54.83325195 53.55688477 C-49.92921809 34.05437383 -41.78197857 11.54372654 -23.92578125 0.0390625 C-17.22760268 -2.66248977 -6.48412842 -3.07822329 0 0 Z " fill="#000000" transform="translate(213.55078125,421.2109375)"/>
<path d="M0 0 C26.73 0 53.46 0 81 0 C80.34405277 5.90352507 79.68907768 10.84878818 78.24780273 16.47949219 C77.98693847 17.51025249 77.98693847 17.51025249 77.72080421 18.56183624 C77.34647797 20.03812061 76.96945752 21.51372405 76.58995247 22.98868561 C75.9808168 25.35625292 75.37880944 27.72553483 74.77867126 30.09539795 C74.14961651 32.5793843 73.52020255 35.06327142 72.8886919 37.54663467 C70.9167158 45.30373682 68.99386126 53.0725307 67.0838871 60.8450985 C66.53282028 63.08763109 65.98091264 65.32995518 65.42875671 67.57221985 C64.68517268 70.59207077 63.94188592 73.61199456 63.19888306 76.63198853 C61.24407818 84.57679447 59.2864809 92.52091245 57.328125 100.46484375 C57.04164062 101.62695909 57.04164062 101.62695909 56.74936867 102.8125515 C52.70575212 119.21259057 48.6243166 135.60299191 44.50898743 151.98518372 C43.35306075 156.58765203 42.20402015 161.19178142 41.05859375 165.796875 C38.13237505 177.55599643 35.15772785 189.29850322 32.06640625 201.01538086 C30.35238477 207.54601228 28.75471883 214.0965313 27.29223633 220.68823242 C26.47720274 224.29083719 25.40987301 227.59171565 24 231 C28.50071139 230.91860224 33.00011929 230.80580044 37.5 230.6875 C38.7684375 230.66494141 40.036875 230.64238281 41.34375 230.61914062 C50.83983686 230.3471173 58.44722246 229.23925101 66 223 C79.11149932 207.35596169 77.41198035 184.23971626 78 165 C79.32 165 80.64 165 82 165 C82 188.1 82 211.2 82 235 C54.28 235 26.56 235 -2 235 C-0.76256289 228.19409591 0.49736431 221.51618703 2.125 214.8125 C2.33382812 213.94230225 2.54265625 213.07210449 2.7578125 212.17553711 C4.95224767 203.08686616 7.24798169 194.02327046 9.53012085 184.95632935 C11.59582337 176.74152562 13.60633235 168.52088134 15.4375 160.25 C17.61258296 150.43360725 20.0473888 140.68736346 22.5 130.9375 C25.54740118 118.82211256 28.54153882 106.69899692 31.40087891 94.53759766 C33.30604124 86.46821815 35.25646444 78.40948125 37.1953125 70.34814453 C38.01705158 66.92905178 38.83665492 63.50945101 39.65625 60.08984375 C43.99203286 42.03131434 48.46859307 24.01025702 53 6 C49.016686 5.87532964 45.03414494 5.78516687 41.04931641 5.7253418 C39.03637747 5.68817173 37.02398163 5.6246003 35.01171875 5.56054688 C27.44893223 5.46553699 21.642393 5.56060474 16 11 C7.86669732 21.0039623 5.08755029 36.13057662 4.68359375 48.7109375 C4.64169922 49.95488281 4.59980469 51.19882812 4.55664062 52.48046875 C4.51732422 53.76566406 4.47800781 55.05085938 4.4375 56.375 C4.37272461 58.33759766 4.37272461 58.33759766 4.30664062 60.33984375 C4.20087571 63.55979797 4.09878421 66.77982531 4 70 C2.68 70 1.36 70 0 70 C0 46.9 0 23.8 0 0 Z " fill="#000000" transform="translate(600,422)"/>
<path d="M0 0 C0.66 0 1.32 0 2 0 C6.45130237 23.97985281 10.80443877 47.97408177 15 72 C15.3502494 74.00000193 15.70050877 76.00000211 16.05078125 78 C17.72388769 87.57298994 19.36957942 97.15060459 21.00854492 106.72949219 C23.54290139 121.54120643 26.09177139 136.35035233 28.66149902 151.15597534 C29.00717058 153.14819948 29.35247782 155.14048687 29.6973877 157.13284302 C31.29437429 166.35517687 32.89955083 175.5738909 34.64453125 184.76953125 C35.69892002 190.33434119 36.66204116 195.89897366 37.5 201.5 C38.63062 208.90270588 39.96602074 216.24210261 41.44921875 223.58203125 C41.96681645 226.79407371 42.10437831 229.75433153 42 233 C45.3 233 48.6 233 52 233 C52 234.32 52 235.64 52 237 C37.15 237 22.3 237 7 237 C7 235.68 7 234.36 7 233 C9.97 232.67 12.94 232.34 16 232 C15.65219482 230.05734253 15.65219482 230.05734253 15.29736328 228.07543945 C14.42729071 223.2132541 13.55929849 218.35069918 12.69189453 213.48803711 C12.31810208 211.39418769 11.94376556 209.30043531 11.56884766 207.20678711 C6 176.10291667 6 176.10291667 6 169 C-4.89 169 -15.78 169 -27 169 C-27.33 172.63 -27.66 176.26 -28 180 C-28.27415687 181.90490871 -28.57416379 183.80671405 -28.92382812 185.69921875 C-29.10071167 186.66972168 -29.27759521 187.64022461 -29.45983887 188.64013672 C-29.64840454 189.6457666 -29.83697021 190.65139648 -30.03125 191.6875 C-30.22722778 192.75242676 -30.42320557 193.81735352 -30.62512207 194.91455078 C-31.03631671 197.14349915 -31.44987808 199.37201212 -31.86572266 201.60009766 C-32.5032743 205.01755114 -33.13308121 208.43636542 -33.76171875 211.85546875 C-34.16361423 214.02872878 -34.56594239 216.20190885 -34.96875 218.375 C-35.15731567 219.39682373 -35.34588135 220.41864746 -35.54016113 221.47143555 C-35.71704468 222.41672119 -35.89392822 223.36200684 -36.07617188 224.3359375 C-36.23081909 225.16657715 -36.38546631 225.9972168 -36.5447998 226.85302734 C-37 229 -37 229 -38 232 C-34.04 232.33 -30.08 232.66 -26 233 C-26 234.32 -26 235.64 -26 237 C-35.24 237 -44.48 237 -54 237 C-54 235.68 -54 234.36 -54 233 C-50.7 233 -47.4 233 -44 233 C-43.76667969 231.56785156 -43.53335937 230.13570312 -43.29296875 228.66015625 C-39.90112321 208.28158591 -35.9616696 188.01298851 -32.01049805 167.73657227 C-29.23983858 153.50807074 -26.5522614 139.26929009 -24 125 C-23.73117357 123.502173 -23.46221773 122.00436922 -23.19311523 120.5065918 C-23.06663605 119.80253204 -22.94015686 119.09847229 -22.80984497 118.37307739 C-22.68697113 117.68921967 -22.56409729 117.00536194 -22.4375 116.30078125 C-22.31800995 115.63561493 -22.1985199 114.97044861 -22.07540894 114.28512573 C-19.97550824 102.60432722 -17.85901651 90.93996049 -15.328125 79.34301758 C-14.06757304 73.5083304 -13.08242495 67.64848761 -12.14160156 61.75488281 C-11.14419258 55.61266179 -9.87542158 49.54952426 -8.55297852 43.47021484 C-7.17565621 37.04881765 -6.03260736 30.5999603 -4.9375 24.125 C-3.56345676 16.00314674 -2.02411606 7.98912475 0 0 Z M-10 81 C-11.85708932 86.01414117 -12.77174894 90.93668725 -13.625 96.1875 C-15.8038547 109.16498727 -18.23027961 122.09414893 -20.65802002 135.02694702 C-21.00515553 136.87628143 -21.35186131 138.72569656 -21.69812012 140.57519531 C-22.01628649 142.27437404 -22.33544629 143.97336724 -22.65588379 145.67211914 C-23.85997855 152.10406061 -24.92351852 158.54111115 -26 165 C-15.77 165 -5.54 165 5 165 C1.07509681 139.10823038 1.07509681 139.10823038 -3.59179688 113.34423828 C-5.7097727 102.61807591 -7.3274656 91.80290506 -9 81 C-9.33 81 -9.66 81 -10 81 Z " fill="#000000" transform="translate(505,420)"/>
<path d="M0 0 C0.66 0 1.32 0 2 0 C4.7781964 14.35003626 7.39002413 28.72147875 9.875 43.125 C10.22789953 45.16237566 10.5809292 47.19972878 10.93408203 49.23706055 C13.04647487 61.43336878 15.13742334 73.63329021 17.22018433 85.83468628 C20.79682243 106.77177785 24.49700781 127.68751759 28.17398071 148.60716248 C30.36407032 161.06819168 32.54983342 173.52998304 34.72485352 185.99365234 C34.9936315 187.53353228 35.26242972 189.07340869 35.53125 190.61328125 C35.72176186 191.70470428 35.72176186 191.70470428 35.91612244 192.81817627 C36.69430913 197.2699607 37.48402778 201.71954445 38.28125 206.16796875 C38.46961426 207.22677246 38.65797852 208.28557617 38.85205078 209.37646484 C39.17993288 211.21731926 39.5111237 213.05759073 39.84716797 214.89697266 C40.91312673 220.90810094 41.52390246 226.9150131 42 233 C44.97 233 47.94 233 51 233 C51 234.32 51 235.64 51 237 C36.81 237 22.62 237 8 237 C8 235.68 8 234.36 8 233 C10.64 232.67 13.28 232.34 16 232 C15.75878418 230.63572876 15.75878418 230.63572876 15.51269531 229.24389648 C15.17383301 227.32685913 15.17383301 227.32685913 14.828125 225.37109375 C14.70561371 224.67804642 14.58310242 223.98499908 14.45687866 223.27095032 C13.77912326 219.43572893 13.10234901 215.60033767 12.42724609 211.76464844 C12.15202754 210.20117024 11.87679968 208.63769367 11.6015625 207.07421875 C11.46475067 206.29696442 11.32793884 205.51971008 11.1869812 204.71890259 C10.37095215 200.08823783 9.54503626 195.45948349 8.7109375 190.83203125 C8.52499023 189.79054932 8.33904297 188.74906738 8.14746094 187.67602539 C7.80843892 185.77734369 7.46556784 183.87934371 7.11816406 181.98217773 C6.96831055 181.13727783 6.81845703 180.29237793 6.6640625 179.421875 C6.53467285 178.70612305 6.4052832 177.99037109 6.27197266 177.25292969 C5.94209075 174.52029931 6 171.75246995 6 169 C-4.89 169 -15.78 169 -27 169 C-27.33 172.63 -27.66 176.26 -28 180 C-28.40438797 182.68205535 -28.84613456 185.35885074 -29.33203125 188.02734375 C-29.46132523 188.74027084 -29.5906192 189.45319794 -29.72383118 190.18772888 C-31.27725376 198.6656725 -32.97914582 207.11470189 -34.6875 215.5625 C-35.0112517 217.17118694 -35.33482013 218.77991078 -35.65820312 220.38867188 C-36.4367034 224.25954047 -37.21763521 228.12991072 -38 232 C-34.37 232.33 -30.74 232.66 -27 233 C-27 234.32 -27 235.64 -27 237 C-35.91 237 -44.82 237 -54 237 C-54 235.68 -54 234.36 -54 233 C-50.7 233 -47.4 233 -44 233 C-43.81207886 231.8253418 -43.81207886 231.8253418 -43.62036133 230.62695312 C-41.28475064 216.11121215 -38.83302427 201.66709892 -35.73779297 187.2902832 C-34.33031155 180.71702182 -33.14320101 174.14003073 -32.09106445 167.50170898 C-31.11493711 161.44206889 -29.85590587 155.46338294 -28.55273438 149.46679688 C-26.96894083 142.07776766 -25.69408401 134.64585053 -24.42993164 127.1965332 C-23.55916697 122.10258131 -22.6259013 117.045255 -21.5 112 C-20.24289202 106.33632735 -19.22191786 100.65516536 -18.25 94.9375 C-15.81062456 80.62399919 -13.0659182 66.36977704 -10.34796143 52.10722351 C-9.32455038 46.72902319 -8.31737658 41.34798638 -7.3203125 35.96484375 C-7.05258076 34.52270338 -6.78484004 33.08056468 -6.51708984 31.63842773 C-6.02240196 28.97307485 -5.53101172 26.30718549 -5.04150391 23.64086914 C-3.56772193 15.70702709 -1.88136588 7.84723288 0 0 Z M-11 81 C-11.1959375 82.16144531 -11.391875 83.32289063 -11.59375 84.51953125 C-14.25931841 100.14139631 -17.16129499 115.71668758 -20.09375 131.2902832 C-22.19992059 142.50711879 -24.1599587 153.73619576 -26 165 C-15.77 165 -5.54 165 5 165 C2.00781157 146.23580004 -1.03941395 127.4822609 -4.29220581 108.76123047 C-4.59583705 107.01275494 -4.89819834 105.26405837 -5.19924927 103.51513672 C-5.62360719 101.0536428 -6.0531828 98.5931173 -6.484375 96.1328125 C-6.60814011 95.4113504 -6.73190521 94.68988831 -6.85942078 93.94656372 C-7.64334231 89.52096947 -8.70058319 85.29424314 -10 81 C-10.33 81 -10.66 81 -11 81 Z " fill="#000000" transform="translate(878,420)"/>
<path d="M0 0 C14.85 0 29.7 0 45 0 C45 1.65 45 3.3 45 5 C41.7 5 38.4 5 35 5 C35 79.58 35 154.16 35 231 C38.3 231 41.6 231 45 231 C45 232.32 45 233.64 45 235 C30.15 235 15.3 235 0 235 C0 233.68 0 232.36 0 231 C3.3 231 6.6 231 10 231 C10 156.42 10 81.84 10 5 C6.7 5 3.4 5 0 5 C0 3.35 0 1.7 0 0 Z " fill="#000000" transform="translate(738,422)"/>
</svg>
